<svg xmlns="http://www.w3.org/2000/svg" width="1180" height="1180" viewBox="0 0 1180 1180"><rect width="1180" height="1180" fill="#fbfbfb"/><text x="70.0" y="52.0" font-family="Helvetica,Arial" font-size="18" text-anchor="start" fill="#111" font-weight="bold">1 - SECTION through both electrodes  (in use, vial below)</text><line x1="490.0" y1="70.0" x2="490.0" y2="735.0" stroke="#999" stroke-width="0.8" stroke-dasharray="6 5"/><rect x="435.4" y="84.0" width="42.0" height="595.0" rx="0" fill="#b9bcc2" fill-opacity="1.0" stroke="#555" stroke-width="1.2"/><rect x="502.6" y="84.0" width="42.0" height="595.0" rx="0" fill="#b9bcc2" fill-opacity="1.0" stroke="#555" stroke-width="1.2"/><line x1="456.4" y1="84.0" x2="421.4" y2="28.0" stroke="#111" stroke-width="3"/><line x1="523.6" y1="84.0" x2="558.6" y2="28.0" stroke="#c00" stroke-width="3"/><rect x="400.4" y="182.0" width="179.2" height="84.0" rx="0" fill="#ffe2b8" fill-opacity="1.0" stroke="#a06000" stroke-width="1.6"/><rect x="432.6" y="182.0" width="47.6" height="84.0" rx="0" fill="none" fill-opacity="1" stroke="#a06000" stroke-width="0.8"/><rect x="499.8" y="182.0" width="47.6" height="84.0" rx="0" fill="none" fill-opacity="1" stroke="#a06000" stroke-width="0.8"/><line x1="400.4" y1="224.0" x2="477.4" y2="224.0" stroke="#444" stroke-width="4"/><circle cx="386.4" cy="224.0" r="12.6" fill="#777" stroke="#333" stroke-width="1"/><line x1="579.6" y1="224.0" x2="502.6" y2="224.0" stroke="#444" stroke-width="4"/><circle cx="593.6" cy="224.0" r="12.6" fill="#777" stroke="#333" stroke-width="1"/><rect x="403.9" y="266.0" width="21.0" height="91.0" rx="0" fill="#ffe2b8" fill-opacity="1.0" stroke="#a06000" stroke-width="1.2"/><rect x="555.1" y="266.0" width="21.0" height="91.0" rx="0" fill="#ffe2b8" fill-opacity="1.0" stroke="#a06000" stroke-width="1.2"/><rect x="395.5" y="357.0" width="189.0" height="84.0" rx="0" fill="#cfe3f7" fill-opacity="1.0" stroke="#1f5fa0" stroke-width="1.6"/><line x1="402.5" y1="378.0" x2="416.5" y2="385.0" stroke="#1f5fa0" stroke-width="1"/><line x1="577.5" y1="378.0" x2="563.5" y2="385.0" stroke="#1f5fa0" stroke-width="1"/><line x1="402.5" y1="392.0" x2="416.5" y2="399.0" stroke="#1f5fa0" stroke-width="1"/><line x1="577.5" y1="392.0" x2="563.5" y2="399.0" stroke="#1f5fa0" stroke-width="1"/><line x1="402.5" y1="406.0" x2="416.5" y2="413.0" stroke="#1f5fa0" stroke-width="1"/><line x1="577.5" y1="406.0" x2="563.5" y2="413.0" stroke="#1f5fa0" stroke-width="1"/><line x1="402.5" y1="420.0" x2="416.5" y2="427.0" stroke="#1f5fa0" stroke-width="1"/><line x1="577.5" y1="420.0" x2="563.5" y2="427.0" stroke="#1f5fa0" stroke-width="1"/><rect x="424.2" y="322.0" width="64.4" height="35.0" rx="0" fill="#9fc6ee" fill-opacity="1.0" stroke="#1f5fa0" stroke-width="1.2"/><rect x="432.6" y="322.0" width="47.6" height="49.0" rx="0" fill="none" fill-opacity="1.0" stroke="#1f5fa0" stroke-width="0.8"/><rect x="491.4" y="322.0" width="64.4" height="35.0" rx="0" fill="#9fc6ee" fill-opacity="1.0" stroke="#1f5fa0" stroke-width="1.2"/><rect x="499.8" y="322.0" width="47.6" height="49.0" rx="0" fill="none" fill-opacity="1.0" stroke="#1f5fa0" stroke-width="0.8"/><rect x="418.6" y="322.0" width="75.6" height="35.0" rx="0" fill="none" fill-opacity="1.0" stroke="#a06000" stroke-width="1.4"/><rect x="485.8" y="322.0" width="75.6" height="35.0" rx="0" fill="none" fill-opacity="1.0" stroke="#a06000" stroke-width="1.4"/><rect x="413.0" y="413.0" width="154.0" height="14.0" rx="0" fill="#d9c2ef" fill-opacity="1.0" stroke="#6a3da0" stroke-width="1.4"/><rect x="409.5" y="441.0" width="161.0" height="49.0" rx="0" fill="#cdeee4" fill-opacity="1.0" stroke="#2a8f72" stroke-width="1.4"/><line x1="409.5" y1="490.0" x2="409.5" y2="735.0" stroke="#2a8f72" stroke-width="1.4"/><line x1="570.5" y1="490.0" x2="570.5" y2="735.0" stroke="#2a8f72" stroke-width="1.4"/><text x="490.0" y="728.0" font-family="Helvetica,Arial" font-size="12" text-anchor="middle" fill="#2a8f72" font-weight="normal">glass vial</text><circle cx="544.6" cy="224.0" r="2.0" fill="#b00" stroke="#b00" stroke-width="1"/><line x1="544.6" y1="224.0" x2="696.5" y2="196.0" stroke="#b00" stroke-width="1.0"/><text x="700.5" y="200.0" font-family="Helvetica,Arial" font-size="13" text-anchor="start" fill="#111" font-weight="normal">M3 clamp: bolt pushes wire onto electrode</text><circle cx="547.4" cy="203.0" r="2.0" fill="#b00" stroke="#b00" stroke-width="1"/><line x1="547.4" y1="203.0" x2="696.5" y2="140.0" stroke="#b00" stroke-width="1.0"/><text x="700.5" y="144.0" font-family="Helvetica,Arial" font-size="13" text-anchor="start" fill="#111" font-weight="normal">BEARING 2  (upper snug bore)</text><circle cx="561.4" cy="336.0" r="2.0" fill="#b00" stroke="#b00" stroke-width="1"/><line x1="561.4" y1="336.0" x2="696.5" y2="315.0" stroke="#b00" stroke-width="1.0"/><text x="700.5" y="319.0" font-family="Helvetica,Arial" font-size="13" text-anchor="start" fill="#111" font-weight="normal">registration BOSS + carriage collar (slip-fit, keyed)</text><circle cx="547.4" cy="350.0" r="2.0" fill="#b00" stroke="#b00" stroke-width="1"/><line x1="547.4" y1="350.0" x2="696.5" y2="413.0" stroke="#b00" stroke-width="1.0"/><text x="700.5" y="417.0" font-family="Helvetica,Arial" font-size="13" text-anchor="start" fill="#111" font-weight="normal">BEARING 1  (cap guide bore)</text><circle cx="556.5" cy="420.0" r="2.0" fill="#b00" stroke="#b00" stroke-width="1"/><line x1="556.5" y1="420.0" x2="696.5" y2="427.0" stroke="#b00" stroke-width="1.0"/><text x="700.5" y="431.0" font-family="Helvetica,Arial" font-size="13" text-anchor="start" fill="#111" font-weight="normal">SEPTUM - seals only, grips nothing</text><circle cx="542.5" cy="462.0" r="2.0" fill="#b00" stroke="#b00" stroke-width="1"/><line x1="542.5" y1="462.0" x2="696.5" y2="497.0" stroke="#b00" stroke-width="1.0"/><text x="700.5" y="501.0" font-family="Helvetica,Arial" font-size="13" text-anchor="start" fill="#111" font-weight="normal">vial rim crushes septum to cap ceiling = seal</text><line x1="358.4" y1="266.0" x2="358.4" y2="357.0" stroke="#06c" stroke-width="1.2"/><line x1="344.4" y1="266.0" x2="372.4" y2="266.0" stroke="#06c" stroke-width="1.2"/><line x1="344.4" y1="357.0" x2="372.4" y2="357.0" stroke="#06c" stroke-width="1.2"/><text x="337.4" y="311.5" font-family="Helvetica,Arial" font-size="12" text-anchor="end" fill="#06c" font-weight="normal">standoff =</text><text x="337.4" y="325.5" font-family="Helvetica,Arial" font-size="12" text-anchor="end" fill="#06c" font-weight="normal">L - cap_h - g</text><line x1="456.4" y1="182.0" x2="386.4" y2="182.0" stroke="#b00" stroke-width="1.0"/><text x="379.4" y="185.0" font-family="Helvetica,Arial" font-size="12" text-anchor="end" fill="#111" font-weight="normal">push electrode flush to this face</text><text x="269.5" y="581.0" font-family="Helvetica,Arial" font-size="14" text-anchor="end" fill="#060" font-weight="bold">Both bores tied to the cap</text><text x="269.5" y="599.0" font-family="Helvetica,Arial" font-size="14" text-anchor="end" fill="#060" font-weight="bold">through the posts:</text><text x="269.5" y="621.0" font-family="Helvetica,Arial" font-size="14" text-anchor="end" fill="#060" font-weight="normal">no tilt, no slide. Clamp</text><text x="269.5" y="639.0" font-family="Helvetica,Arial" font-size="14" text-anchor="end" fill="#060" font-weight="normal">kills the last DOF.</text><text x="70.0" y="746.0" font-family="Helvetica,Arial" font-size="18" text-anchor="start" fill="#111" font-weight="bold">2 - TOP VIEW of cap (poka-yoke + layout)</text><polygon points="289.1,900.0 289.1,906.6 289.1,913.2 289.1,919.6 289.1,926.0 289.1,932.3 289.1,938.4 289.1,944.4 289.1,950.1 286.5,955.5 282.4,960.7 278.0,965.6 273.2,970.2 268.2,974.5 262.8,978.3 257.2,981.8 251.4,984.9 245.4,987.6 239.2,989.9 232.9,991.7 226.4,993.1 219.9,994.0 213.3,994.4 206.7,994.4 200.1,994.0 193.6,993.1 187.1,991.7 180.8,989.9 174.6,987.6 168.6,984.9 162.8,981.8 157.2,978.3 151.8,974.5 146.8,970.2 142.0,965.6 137.6,960.7 133.5,955.5 129.9,950.1 126.6,944.4 123.7,938.4 121.2,932.3 119.2,926.0 117.6,919.6 116.4,913.2 115.7,906.6 115.5,900.0 115.7,893.4 116.4,886.8 117.6,880.4 119.2,874.0 121.2,867.7 123.7,861.6 126.6,855.6 129.9,849.9 133.5,844.5 137.6,839.3 142.0,834.4 146.8,829.8 151.8,825.5 157.2,821.7 162.7,818.2 168.6,815.1 174.6,812.4 180.8,810.1 187.1,808.3 193.6,806.9 200.1,806.0 206.7,805.6 213.3,805.6 219.9,806.0 226.4,806.9 232.9,808.3 239.2,810.1 245.4,812.4 251.4,815.1 257.2,818.2 262.8,821.7 268.2,825.5 273.2,829.8 278.0,834.4 282.4,839.3 286.5,844.5 289.1,849.9 289.1,855.6 289.1,861.6 289.1,867.7 289.1,874.0 289.1,880.4 289.1,886.8 289.1,893.4" fill="#cfe3f7" fill-opacity="1.0" stroke="#1f5fa0" stroke-width="1.6"/><circle cx="210.0" cy="866.4" r="21.0" fill="#b9bcc2" stroke="#555" stroke-width="1.4"/><circle cx="210.0" cy="933.6" r="21.0" fill="#b9bcc2" stroke="#555" stroke-width="1.4"/><circle cx="210.0" cy="900.0" r="15.4" fill="#d9c2ef" stroke="#6a3da0" stroke-width="1.0"/><text x="210.0" y="904.0" font-family="Helvetica,Arial" font-size="9" text-anchor="middle" fill="#6a3da0" font-weight="normal">needle</text><line x1="73.5" y1="866.4" x2="189.0" y2="866.4" stroke="#444" stroke-width="3"/><line x1="346.5" y1="933.6" x2="231.0" y2="933.6" stroke="#444" stroke-width="3"/><circle cx="297.5" cy="900.0" r="2.0" fill="#b00" stroke="#b00" stroke-width="1"/><line x1="297.5" y1="900.0" x2="374.5" y2="844.0" stroke="#b00" stroke-width="1.0"/><text x="378.5" y="848.0" font-family="Helvetica,Arial" font-size="12" text-anchor="start" fill="#111" font-weight="normal">poka-yoke flat keys rotation</text><circle cx="210.0" cy="866.4" r="2.0" fill="#b00" stroke="#b00" stroke-width="1"/><line x1="210.0" y1="866.4" x2="374.5" y2="970.0" stroke="#b00" stroke-width="1.0"/><text x="378.5" y="974.0" font-family="Helvetica,Arial" font-size="12" text-anchor="start" fill="#111" font-weight="normal">electrode ports (x2)</text><text x="560.0" y="706.0" font-family="Helvetica,Arial" font-size="18" text-anchor="start" fill="#111" font-weight="bold">3 - EXPLODED (assembly order)</text><rect x="665.0" y="762.0" width="182.0" height="70.0" rx="6" fill="#ffe2b8" fill-opacity="1.0" stroke="#a06000" stroke-width="1.6"/><circle cx="722.4" cy="797.0" r="22.0" fill="#fff" stroke="#a06000" stroke-width="1.2"/><circle cx="789.6" cy="797.0" r="22.0" fill="#fff" stroke="#a06000" stroke-width="1.2"/><text x="859.0" y="804.0" font-family="Helvetica,Arial" font-size="13" text-anchor="start" fill="#111" font-weight="normal">CARRIAGE  (top stop + posts + clamp)</text><rect x="668.5" y="832.0" width="21.0" height="56.0" rx="0" fill="#ffe2b8" fill-opacity="1.0" stroke="#a06000" stroke-width="1.0"/><rect x="822.5" y="832.0" width="21.0" height="56.0" rx="0" fill="#ffe2b8" fill-opacity="1.0" stroke="#a06000" stroke-width="1.0"/><rect x="701.4" y="944.0" width="42.0" height="238.0" rx="0" fill="#b9bcc2" fill-opacity="1.0" stroke="#555" stroke-width="1.2"/><rect x="768.6" y="944.0" width="42.0" height="238.0" rx="0" fill="#b9bcc2" fill-opacity="1.0" stroke="#555" stroke-width="1.2"/><text x="824.6" y="1014.0" font-family="Helvetica,Arial" font-size="13" text-anchor="start" fill="#111" font-weight="normal">electrodes</text><line x1="756.0" y1="895.0" x2="756.0" y2="942.0" stroke="#888" stroke-width="1.0" stroke-dasharray="4 4"/><ellipse cx="756.0" cy="1224.0" rx="77.0" ry="22.4" fill="#d9c2ef" fill-opacity="1.0" stroke="#333" stroke-width="1.6"/><text x="845.0" y="1228.0" font-family="Helvetica,Arial" font-size="13" text-anchor="start" fill="#111" font-weight="normal">SEPTUM disc (1-3mm silicone)</text><line x1="756.0" y1="1184.0" x2="756.0" y2="1201.6" stroke="#888" stroke-width="1.0" stroke-dasharray="4 4"/><ellipse cx="756.0" cy="1308.0" rx="94.5" ry="28.0" fill="#cfe3f7" fill-opacity="1.0" stroke="#1f5fa0" stroke-width="1.6"/><rect x="661.5" y="1308.0" width="189.0" height="84.0" rx="0" fill="#cfe3f7" fill-opacity="1.0" stroke="#1f5fa0" stroke-width="1.6"/><ellipse cx="756.0" cy="1392.0" rx="94.5" ry="28.0" fill="#bcd8f4" fill-opacity="1.0" stroke="#1f5fa0" stroke-width="1.6"/><ellipse cx="722.4" cy="1308.0" rx="32.2" ry="11.2" fill="#9fc6ee" fill-opacity="1.0" stroke="#1f5fa0" stroke-width="1.2"/><ellipse cx="789.6" cy="1308.0" rx="32.2" ry="11.2" fill="#9fc6ee" fill-opacity="1.0" stroke="#1f5fa0" stroke-width="1.2"/><text x="862.5" y="1350.0" font-family="Helvetica,Arial" font-size="13" text-anchor="start" fill="#111" font-weight="normal">CAP (thread + septum seat + bosses)</text><line x1="756.0" y1="1246.4" x2="756.0" y2="1280.0" stroke="#888" stroke-width="1.0" stroke-dasharray="4 4"/><line x1="616.0" y1="909.0" x2="616.0" y2="965.0" stroke="#060" stroke-width="2"/><polygon points="612.0,964.0 620.0,964.0 616.0,970.0" fill="#060" fill-opacity="1.0" stroke="#060" stroke-width="1"/><line x1="616.0" y1="1196.0" x2="616.0" y2="1252.0" stroke="#060" stroke-width="2"/><polygon points="612.0,1251.0 620.0,1251.0 616.0,1257.0" fill="#060" fill-opacity="1.0" stroke="#060" stroke-width="1"/><line x1="616.0" y1="1266.0" x2="616.0" y2="1322.0" stroke="#060" stroke-width="2"/><polygon points="612.0,1321.0 620.0,1321.0 616.0,1327.0" fill="#060" fill-opacity="1.0" stroke="#060" stroke-width="1"/></svg>