<svg xmlns="http://www.w3.org/2000/svg" width="1000" height="1230" viewBox="0 0 1000 1230"><rect width="1000" height="1230" fill="#fbfbfb"/><text x="245.0" y="16.0" font-family="Helvetica,Arial" font-size="15" text-anchor="middle" fill="#111" font-weight="bold">TOP - ports</text><polygon points="380.0,200.0 379.9,195.3 379.7,190.6 379.3,185.9 378.7,181.2 377.9,176.6 377.0,171.9 376.0,167.3 374.8,162.8 373.4,158.3 371.9,153.8 370.2,149.4 368.3,145.1 366.3,140.8 364.2,136.6 361.9,132.5 359.5,128.5 356.9,124.5 354.2,120.6 351.4,116.9 348.4,113.2 345.3,109.7 342.1,106.2 338.8,102.9 335.3,99.7 331.8,96.6 328.1,93.6 324.4,90.8 320.5,88.1 316.5,85.5 312.5,83.1 308.4,80.8 304.2,78.7 299.9,76.7 295.6,74.8 291.2,73.1 286.7,71.6 282.2,70.2 277.7,69.0 273.1,68.0 268.4,67.1 263.8,66.3 259.1,65.7 254.4,65.3 249.7,65.1 245.0,65.0 240.3,65.1 235.6,65.3 230.9,65.7 226.2,66.3 221.6,67.1 216.9,68.0 212.3,69.0 207.8,70.2 203.3,71.6 198.8,73.1 194.4,74.8 190.1,76.7 185.8,78.7 181.6,80.8 177.5,83.1 173.5,85.5 169.5,88.1 165.6,90.8 161.9,93.6 158.2,96.6 154.7,99.7 151.2,102.9 147.9,106.2 144.7,109.7 141.6,113.2 138.6,116.9 135.8,120.6 133.1,124.5 130.5,128.5 128.1,132.5 125.8,136.6 123.7,140.8 121.7,145.1 119.8,149.4 118.1,153.8 116.6,158.3 115.2,162.8 114.0,167.3 113.0,171.9 112.1,176.6 111.3,181.2 110.7,185.9 110.3,190.6 110.1,195.3 110.0,200.0 110.1,204.7 110.3,209.4 110.7,214.1 111.3,218.8 112.1,223.4 113.0,228.1 114.0,232.7 115.2,237.2 116.6,241.7 118.1,246.2 119.8,250.6 121.7,254.9 123.7,259.2 125.8,263.4 128.1,267.5 130.5,271.5 133.1,275.5 135.8,279.4 138.6,283.1 141.6,286.8 144.7,290.3 147.9,293.8 151.2,297.1 154.7,300.3 158.2,303.4 161.9,306.4 165.6,309.2 169.5,311.9 173.5,314.5 176.9,318.0 177.4,327.2 176.9,339.7 177.7,351.3 181.3,357.6 186.9,359.7 192.5,361.7 198.1,363.4 203.9,365.0 209.7,366.3 215.5,367.4 221.3,368.3 227.2,369.1 233.1,369.6 239.1,369.9 245.0,370.0 250.9,369.9 256.9,369.6 262.8,369.1 268.7,368.3 274.5,367.4 280.3,366.3 286.1,365.0 291.9,363.4 297.5,361.7 303.1,359.7 308.7,357.6 312.3,351.3 313.1,339.7 312.6,327.2 313.1,318.0 316.5,314.5 320.5,311.9 324.4,309.2 328.1,306.4 331.8,303.4 335.3,300.3 338.8,297.1 342.1,293.8 345.3,290.3 348.4,286.8 351.4,283.1 354.2,279.4 356.9,275.5 359.5,271.5 361.9,267.5 364.2,263.4 366.3,259.2 368.3,254.9 370.2,250.6 371.9,246.2 373.4,241.7 374.8,237.2 376.0,232.7 377.0,228.1 377.9,223.4 378.7,218.8 379.3,214.1 379.7,209.4 379.9,204.7" fill="#cfe0f5" fill-opacity="1" stroke="#1f5fa0" stroke-width="1.7"/><circle cx="245.0" cy="200.0" r="93.9" fill="none" fill-opacity="1" stroke="#2a8f72" stroke-width="1" stroke-dasharray="5 4"/><circle cx="245.0" cy="200.0" r="115.0" fill="#cdb6ec" fill-opacity="0.18" stroke="none" stroke-width="1.5"/><rect x="99.5" y="148.0" width="291.0" height="104.0" rx="30.0" fill="#ffd9a0" fill-opacity="0.5" stroke="#b06a10" stroke-width="1.2"/><circle cx="283.9" cy="132.6" r="16.0" fill="#fff" fill-opacity="1" stroke="#6a3da0" stroke-width="1.4"/><circle cx="245.0" cy="122.1" r="16.0" fill="#fff" fill-opacity="1" stroke="#6a3da0" stroke-width="1.4"/><circle cx="206.1" cy="132.6" r="16.0" fill="#fff" fill-opacity="1" stroke="#6a3da0" stroke-width="1.4"/><circle cx="206.1" cy="267.4" r="16.0" fill="#fff" fill-opacity="1" stroke="#6a3da0" stroke-width="1.4"/><circle cx="245.0" cy="277.9" r="16.0" fill="#fff" fill-opacity="1" stroke="#6a3da0" stroke-width="1.4"/><circle cx="283.9" cy="267.4" r="16.0" fill="#fff" fill-opacity="1" stroke="#6a3da0" stroke-width="1.4"/><circle cx="197.0" cy="200.0" r="30.0" fill="#b9bcc2" fill-opacity="1" stroke="#555" stroke-width="1.3"/><circle cx="293.0" cy="200.0" r="30.0" fill="#b9bcc2" fill-opacity="1" stroke="#555" stroke-width="1.3"/><circle cx="245.0" cy="170.0" r="15.0" fill="#d98a2b" fill-opacity="1" stroke="#7a4a08" stroke-width="1.1"/><circle cx="245.0" cy="230.0" r="15.0" fill="#d98a2b" fill-opacity="1" stroke="#7a4a08" stroke-width="1.1"/><text x="245.0" y="392.0" font-family="Helvetica,Arial" font-size="10.5" text-anchor="middle" fill="#444" font-weight="normal">6 ports inside the neck (green)</text><text x="245.0" y="408.0" font-family="Helvetica,Arial" font-size="10.5" text-anchor="middle" fill="#444" font-weight="normal">poka-yoke = constant-radius tab (from vial-cap-s.3mf)</text><text x="245.0" y="466.0" font-family="Helvetica,Arial" font-size="15" text-anchor="middle" fill="#111" font-weight="bold">TOP - open septum field</text><polygon points="380.0,650.0 379.9,645.3 379.7,640.6 379.3,635.9 378.7,631.2 377.9,626.6 377.0,621.9 376.0,617.3 374.8,612.8 373.4,608.3 371.9,603.8 370.2,599.4 368.3,595.1 366.3,590.8 364.2,586.6 361.9,582.5 359.5,578.5 356.9,574.5 354.2,570.6 351.4,566.9 348.4,563.2 345.3,559.7 342.1,556.2 338.8,552.9 335.3,549.7 331.8,546.6 328.1,543.6 324.4,540.8 320.5,538.1 316.5,535.5 312.5,533.1 308.4,530.8 304.2,528.7 299.9,526.7 295.6,524.8 291.2,523.1 286.7,521.6 282.2,520.2 277.7,519.0 273.1,518.0 268.4,517.1 263.8,516.3 259.1,515.7 254.4,515.3 249.7,515.1 245.0,515.0 240.3,515.1 235.6,515.3 230.9,515.7 226.2,516.3 221.6,517.1 216.9,518.0 212.3,519.0 207.8,520.2 203.3,521.6 198.8,523.1 194.4,524.8 190.1,526.7 185.8,528.7 181.6,530.8 177.5,533.1 173.5,535.5 169.5,538.1 165.6,540.8 161.9,543.6 158.2,546.6 154.7,549.7 151.2,552.9 147.9,556.2 144.7,559.7 141.6,563.2 138.6,566.9 135.8,570.6 133.1,574.5 130.5,578.5 128.1,582.5 125.8,586.6 123.7,590.8 121.7,595.1 119.8,599.4 118.1,603.8 116.6,608.3 115.2,612.8 114.0,617.3 113.0,621.9 112.1,626.6 111.3,631.2 110.7,635.9 110.3,640.6 110.1,645.3 110.0,650.0 110.1,654.7 110.3,659.4 110.7,664.1 111.3,668.8 112.1,673.4 113.0,678.1 114.0,682.7 115.2,687.2 116.6,691.7 118.1,696.2 119.8,700.6 121.7,704.9 123.7,709.2 125.8,713.4 128.1,717.5 130.5,721.5 133.1,725.5 135.8,729.4 138.6,733.1 141.6,736.8 144.7,740.3 147.9,743.8 151.2,747.1 154.7,750.3 158.2,753.4 161.9,756.4 165.6,759.2 169.5,761.9 173.5,764.5 176.9,768.0 177.4,777.2 176.9,789.7 177.7,801.3 181.3,807.6 186.9,809.7 192.5,811.7 198.1,813.4 203.9,815.0 209.7,816.3 215.5,817.4 221.3,818.3 227.2,819.1 233.1,819.6 239.1,819.9 245.0,820.0 250.9,819.9 256.9,819.6 262.8,819.1 268.7,818.3 274.5,817.4 280.3,816.3 286.1,815.0 291.9,813.4 297.5,811.7 303.1,809.7 308.7,807.6 312.3,801.3 313.1,789.7 312.6,777.2 313.1,768.0 316.5,764.5 320.5,761.9 324.4,759.2 328.1,756.4 331.8,753.4 335.3,750.3 338.8,747.1 342.1,743.8 345.3,740.3 348.4,736.8 351.4,733.1 354.2,729.4 356.9,725.5 359.5,721.5 361.9,717.5 364.2,713.4 366.3,709.2 368.3,704.9 370.2,700.6 371.9,696.2 373.4,691.7 374.8,687.2 376.0,682.7 377.0,678.1 377.9,673.4 378.7,668.8 379.3,664.1 379.7,659.4 379.9,654.7" fill="#cfe0f5" fill-opacity="1" stroke="#1f5fa0" stroke-width="1.7"/><circle cx="245.0" cy="650.0" r="93.9" fill="none" fill-opacity="1" stroke="#2a8f72" stroke-width="1" stroke-dasharray="5 4"/><rect x="160.0" y="555.0" width="170.0" height="45.0" rx="26.0" fill="#cdb6ec" fill-opacity="0.55" stroke="#6a3da0" stroke-width="1.3"/><rect x="160.0" y="700.0" width="170.0" height="45.0" rx="26.0" fill="#cdb6ec" fill-opacity="0.55" stroke="#6a3da0" stroke-width="1.3"/><rect x="99.5" y="598.0" width="291.0" height="104.0" rx="30.0" fill="#ffd9a0" fill-opacity="0.5" stroke="#b06a10" stroke-width="1.2"/><circle cx="197.0" cy="650.0" r="30.0" fill="#b9bcc2" fill-opacity="1" stroke="#555" stroke-width="1.3"/><circle cx="293.0" cy="650.0" r="30.0" fill="#b9bcc2" fill-opacity="1" stroke="#555" stroke-width="1.3"/><circle cx="245.0" cy="620.0" r="15.0" fill="#d98a2b" fill-opacity="1" stroke="#7a4a08" stroke-width="1.1"/><circle cx="245.0" cy="680.0" r="15.0" fill="#d98a2b" fill-opacity="1" stroke="#7a4a08" stroke-width="1.1"/><text x="245.0" y="842.0" font-family="Helvetica,Arial" font-size="10.5" text-anchor="middle" fill="#444" font-weight="normal">full-width spine surrounds pegs; two large rounded windows</text><text x="245.0" y="858.0" font-family="Helvetica,Arial" font-size="10.5" text-anchor="middle" fill="#444" font-weight="normal">poka-yoke = constant-radius tab (from vial-cap-s.3mf)</text><text x="705.1" y="106.0" font-family="Helvetica,Arial" font-size="15" text-anchor="middle" fill="#111" font-weight="bold">CLAMP cross-section (outside  →  in)</text><circle cx="632.0" cy="190.0" r="45.0" fill="#b9bcc2" fill-opacity="1" stroke="#555" stroke-width="1.4"/><circle cx="683.8" cy="190.0" r="13.5" fill="#c0622a" fill-opacity="1" stroke="#7a3a12" stroke-width="1.2"/><rect x="679.2" y="145.0" width="27.0" height="90.0" rx="0" fill="#ffd9a0" fill-opacity="1" stroke="#a06000" stroke-width="1.4"/><rect x="745.2" y="145.0" width="33.0" height="90.0" rx="0" fill="#ffd9a0" fill-opacity="1" stroke="#a06000" stroke-width="1.4"/><rect x="706.2" y="140.6" width="39.0" height="98.7" rx="0" fill="#9aa0a8" fill-opacity="1" stroke="#444" stroke-width="1.4"/><line x1="677.0" y1="190.0" x2="823.2" y2="190.0" stroke="#333" stroke-width="3"/><rect x="778.2" y="160.0" width="22.5" height="60.0" rx="0" fill="#777" fill-opacity="1" stroke="#333" stroke-width="1.2"/><line x1="632.0" y1="235.0" x2="632.0" y2="327.0" stroke="#999" stroke-width="0.7"/><text x="632.0" y="339.0" font-family="Helvetica,Arial" font-size="10" text-anchor="middle" fill="#111" font-weight="normal">electrode</text><line x1="683.8" y1="235.0" x2="683.8" y2="303.0" stroke="#999" stroke-width="0.7"/><text x="683.8" y="315.0" font-family="Helvetica,Arial" font-size="10" text-anchor="middle" fill="#111" font-weight="normal">wire</text><line x1="692.8" y1="235.0" x2="692.8" y2="279.0" stroke="#999" stroke-width="0.7"/><text x="692.8" y="291.0" font-family="Helvetica,Arial" font-size="10" text-anchor="middle" fill="#111" font-weight="normal">inner wall</text><line x1="725.8" y1="235.0" x2="725.8" y2="255.0" stroke="#999" stroke-width="0.7"/><text x="725.8" y="267.0" font-family="Helvetica,Arial" font-size="10" text-anchor="middle" fill="#111" font-weight="normal">nut (thin side along bolt)</text><line x1="761.8" y1="235.0" x2="761.8" y2="351.0" stroke="#999" stroke-width="0.7"/><text x="761.8" y="363.0" font-family="Helvetica,Arial" font-size="10" text-anchor="middle" fill="#111" font-weight="normal">outer wall (head bears)</text><text x="811.2" y="154.0" font-family="Helvetica,Arial" font-size="10.5" text-anchor="start" fill="#111" font-weight="normal">M3 Allen bolt</text><text x="720.0" y="416.0" font-family="Helvetica,Arial" font-size="12" text-anchor="middle" fill="#111" font-weight="bold">nut end-view (down the bolt)</text><polygon points="720.0,435.6 677.2,460.3 677.2,509.7 720.0,534.4 762.8,509.7 762.8,460.3" fill="#9aa0a8" fill-opacity="1" stroke="#444" stroke-width="1.5"/><line x1="677.2" y1="425.0" x2="677.2" y2="545.0" stroke="#a06000" stroke-width="2"/><line x1="762.8" y1="425.0" x2="762.8" y2="545.0" stroke="#a06000" stroke-width="2"/><circle cx="720.0" cy="485.0" r="25.5" fill="#fff" fill-opacity="1" stroke="#333" stroke-width="1"/><line x1="687.0" y1="425.0" x2="753.0" y2="425.0" stroke="#060" stroke-width="1.5"/><polygon points="717.0,430.0 723.0,430.0 720.0,422.0" fill="#060" fill-opacity="1" stroke="#060" stroke-width="1.5"/><text x="720.0" y="566.0" font-family="Helvetica,Arial" font-size="10" text-anchor="middle" fill="#060" font-weight="normal">flats vs slot walls = can't rotate;</text><text x="720.0" y="579.0" font-family="Helvetica,Arial" font-size="10" text-anchor="middle" fill="#060" font-weight="normal">open top = drops in, no bridge</text><text x="470.0" y="903.0" font-family="Helvetica,Arial" font-size="14" text-anchor="middle" fill="#111" font-weight="bold">PRINT ORIENTATION  -  no supports (clamp band lands on the bed; nut pocket opens upward, no bridge)</text><line x1="100.0" y1="1105.0" x2="400.0" y2="1105.0" stroke="#888" stroke-width="2"/><line x1="100.0" y1="1105.0" x2="94.0" y2="1113.0" stroke="#bbb" stroke-width="1"/><line x1="114.0" y1="1105.0" x2="108.0" y2="1113.0" stroke="#bbb" stroke-width="1"/><line x1="128.0" y1="1105.0" x2="122.0" y2="1113.0" stroke="#bbb" stroke-width="1"/><line x1="142.0" y1="1105.0" x2="136.0" y2="1113.0" stroke="#bbb" stroke-width="1"/><line x1="156.0" y1="1105.0" x2="150.0" y2="1113.0" stroke="#bbb" stroke-width="1"/><line x1="170.0" y1="1105.0" x2="164.0" y2="1113.0" stroke="#bbb" stroke-width="1"/><line x1="184.0" y1="1105.0" x2="178.0" y2="1113.0" stroke="#bbb" stroke-width="1"/><line x1="198.0" y1="1105.0" x2="192.0" y2="1113.0" stroke="#bbb" stroke-width="1"/><line x1="212.0" y1="1105.0" x2="206.0" y2="1113.0" stroke="#bbb" stroke-width="1"/><line x1="226.0" y1="1105.0" x2="220.0" y2="1113.0" stroke="#bbb" stroke-width="1"/><line x1="240.0" y1="1105.0" x2="234.0" y2="1113.0" stroke="#bbb" stroke-width="1"/><line x1="254.0" y1="1105.0" x2="248.0" y2="1113.0" stroke="#bbb" stroke-width="1"/><line x1="268.0" y1="1105.0" x2="262.0" y2="1113.0" stroke="#bbb" stroke-width="1"/><line x1="282.0" y1="1105.0" x2="276.0" y2="1113.0" stroke="#bbb" stroke-width="1"/><line x1="296.0" y1="1105.0" x2="290.0" y2="1113.0" stroke="#bbb" stroke-width="1"/><line x1="310.0" y1="1105.0" x2="304.0" y2="1113.0" stroke="#bbb" stroke-width="1"/><line x1="324.0" y1="1105.0" x2="318.0" y2="1113.0" stroke="#bbb" stroke-width="1"/><line x1="338.0" y1="1105.0" x2="332.0" y2="1113.0" stroke="#bbb" stroke-width="1"/><line x1="352.0" y1="1105.0" x2="346.0" y2="1113.0" stroke="#bbb" stroke-width="1"/><line x1="366.0" y1="1105.0" x2="360.0" y2="1113.0" stroke="#bbb" stroke-width="1"/><line x1="380.0" y1="1105.0" x2="374.0" y2="1113.0" stroke="#bbb" stroke-width="1"/><line x1="394.0" y1="1105.0" x2="388.0" y2="1113.0" stroke="#bbb" stroke-width="1"/><rect x="101.5" y="1077.5" width="297.0" height="27.5" rx="0" fill="#cfe0f5" fill-opacity="1" stroke="#1f5fa0" stroke-width="1.5"/><rect x="101.5" y="969.7" width="22.0" height="107.8" rx="0" fill="#cfe0f5" fill-opacity="1" stroke="#1f5fa0" stroke-width="1.5"/><rect x="376.5" y="969.7" width="22.0" height="107.8" rx="0" fill="#cfe0f5" fill-opacity="1" stroke="#1f5fa0" stroke-width="1.5"/><text x="250.0" y="959.7" font-family="Helvetica,Arial" font-size="12" text-anchor="middle" fill="#111" font-weight="bold">CAP - closed top on bed</text><text x="250.0" y="1129.0" font-family="Helvetica,Arial" font-size="10" text-anchor="middle" fill="#060" font-weight="normal">cavity opens up; tab is a vertical lobe</text><line x1="570.0" y1="1105.0" x2="870.0" y2="1105.0" stroke="#888" stroke-width="2"/><line x1="570.0" y1="1105.0" x2="564.0" y2="1113.0" stroke="#bbb" stroke-width="1"/><line x1="584.0" y1="1105.0" x2="578.0" y2="1113.0" stroke="#bbb" stroke-width="1"/><line x1="598.0" y1="1105.0" x2="592.0" y2="1113.0" stroke="#bbb" stroke-width="1"/><line x1="612.0" y1="1105.0" x2="606.0" y2="1113.0" stroke="#bbb" stroke-width="1"/><line x1="626.0" y1="1105.0" x2="620.0" y2="1113.0" stroke="#bbb" stroke-width="1"/><line x1="640.0" y1="1105.0" x2="634.0" y2="1113.0" stroke="#bbb" stroke-width="1"/><line x1="654.0" y1="1105.0" x2="648.0" y2="1113.0" stroke="#bbb" stroke-width="1"/><line x1="668.0" y1="1105.0" x2="662.0" y2="1113.0" stroke="#bbb" stroke-width="1"/><line x1="682.0" y1="1105.0" x2="676.0" y2="1113.0" stroke="#bbb" stroke-width="1"/><line x1="696.0" y1="1105.0" x2="690.0" y2="1113.0" stroke="#bbb" stroke-width="1"/><line x1="710.0" y1="1105.0" x2="704.0" y2="1113.0" stroke="#bbb" stroke-width="1"/><line x1="724.0" y1="1105.0" x2="718.0" y2="1113.0" stroke="#bbb" stroke-width="1"/><line x1="738.0" y1="1105.0" x2="732.0" y2="1113.0" stroke="#bbb" stroke-width="1"/><line x1="752.0" y1="1105.0" x2="746.0" y2="1113.0" stroke="#bbb" stroke-width="1"/><line x1="766.0" y1="1105.0" x2="760.0" y2="1113.0" stroke="#bbb" stroke-width="1"/><line x1="780.0" y1="1105.0" x2="774.0" y2="1113.0" stroke="#bbb" stroke-width="1"/><line x1="794.0" y1="1105.0" x2="788.0" y2="1113.0" stroke="#bbb" stroke-width="1"/><line x1="808.0" y1="1105.0" x2="802.0" y2="1113.0" stroke="#bbb" stroke-width="1"/><line x1="822.0" y1="1105.0" x2="816.0" y2="1113.0" stroke="#bbb" stroke-width="1"/><line x1="836.0" y1="1105.0" x2="830.0" y2="1113.0" stroke="#bbb" stroke-width="1"/><line x1="850.0" y1="1105.0" x2="844.0" y2="1113.0" stroke="#bbb" stroke-width="1"/><line x1="864.0" y1="1105.0" x2="858.0" y2="1113.0" stroke="#bbb" stroke-width="1"/><rect x="612.2" y="981.5" width="215.6" height="123.5" rx="8" fill="#ffd9a0" fill-opacity="1" stroke="#a06000" stroke-width="1.5"/><line x1="667.2" y1="1105.0" x2="667.2" y2="981.5" stroke="#a06000" stroke-width="1" stroke-dasharray="3 3"/><line x1="772.8" y1="1105.0" x2="772.8" y2="981.5" stroke="#a06000" stroke-width="1" stroke-dasharray="3 3"/><rect x="670.5" y="954.0" width="33.0" height="27.5" rx="0" fill="#ffd9a0" fill-opacity="1" stroke="#a06000" stroke-width="1.2"/><rect x="736.5" y="954.0" width="33.0" height="27.5" rx="0" fill="#ffd9a0" fill-opacity="1" stroke="#a06000" stroke-width="1.2"/><text x="720.0" y="946.0" font-family="Helvetica,Arial" font-size="12" text-anchor="middle" fill="#111" font-weight="bold">COLUMN - flush face on bed, pegs up</text><text x="720.0" y="1129.0" font-family="Helvetica,Arial" font-size="10" text-anchor="middle" fill="#060" font-weight="normal">bores vertical; teardrop holes; nut pocket opens upward in print (no bridge)</text></svg>